<mxfile host="app.diagrams.net" modified="2024-06-15T13:26:07.099Z" agent="Mozilla/5.0 (Windows NT 10.0; Win64; x64) AppleWebKit/537.36 (KHTML, like Gecko) Chrome/125.0.0.0 Safari/537.36" etag="pI7YwlVvaKIwVN-1pE7f" version="24.5.3" type="device">
  <diagram name="Page-1" id="whePmXk7lpNznyaGy9mw">
    <mxGraphModel dx="2838" dy="1569" grid="1" gridSize="10" guides="1" tooltips="1" connect="1" arrows="1" fold="1" page="1" pageScale="1" pageWidth="827" pageHeight="1169" math="0" shadow="0">
      <root>
        <mxCell id="0" />
        <mxCell id="1" parent="0" />
        <mxCell id="zrN9ZFuIJPFsRY1B07hM-1" value="Etiology" style="whiteSpace=wrap;html=1;align=center;" parent="1" vertex="1">
          <mxGeometry x="-390" y="-430" width="100" height="20" as="geometry" />
        </mxCell>
        <mxCell id="KEMGA4CijHjqJV3LTYtR-28" value="Cause" style="whiteSpace=wrap;html=1;align=center;" parent="1" vertex="1">
          <mxGeometry x="-370" y="-510" width="60" height="20" as="geometry" />
        </mxCell>
        <mxCell id="KEMGA4CijHjqJV3LTYtR-36" value="&lt;i&gt;infectionID&lt;/i&gt;" style="ellipse;whiteSpace=wrap;html=1;align=center;" parent="1" vertex="1">
          <mxGeometry x="-190" y="-460" width="80" height="20" as="geometry" />
        </mxCell>
        <mxCell id="KEMGA4CijHjqJV3LTYtR-37" value="&lt;i&gt;causeType&lt;/i&gt;" style="ellipse;whiteSpace=wrap;html=1;align=center;" parent="1" vertex="1">
          <mxGeometry x="-170" y="-430" width="70" height="20" as="geometry" />
        </mxCell>
        <mxCell id="KEMGA4CijHjqJV3LTYtR-38" value="" style="endArrow=none;html=1;rounded=0;exitX=0;exitY=0.5;exitDx=0;exitDy=0;entryX=1;entryY=0.25;entryDx=0;entryDy=0;" parent="1" source="KEMGA4CijHjqJV3LTYtR-37" target="zrN9ZFuIJPFsRY1B07hM-1" edge="1">
          <mxGeometry relative="1" as="geometry">
            <mxPoint x="-180" y="-425" as="sourcePoint" />
            <mxPoint x="-220" y="-435" as="targetPoint" />
            <Array as="points" />
          </mxGeometry>
        </mxCell>
        <mxCell id="KEMGA4CijHjqJV3LTYtR-39" value="" style="endArrow=none;html=1;rounded=0;exitX=1;exitY=0.25;exitDx=0;exitDy=0;entryX=0;entryY=0.5;entryDx=0;entryDy=0;" parent="1" source="zrN9ZFuIJPFsRY1B07hM-1" target="KEMGA4CijHjqJV3LTYtR-36" edge="1">
          <mxGeometry relative="1" as="geometry">
            <mxPoint x="-610" y="-210" as="sourcePoint" />
            <mxPoint x="-662" y="-183" as="targetPoint" />
            <Array as="points" />
          </mxGeometry>
        </mxCell>
        <mxCell id="KEMGA4CijHjqJV3LTYtR-51" value="" style="endArrow=none;html=1;rounded=0;exitX=1;exitY=0.5;exitDx=0;exitDy=0;entryX=0;entryY=0.5;entryDx=0;entryDy=0;" parent="1" source="KEMGA4CijHjqJV3LTYtR-28" target="KEMGA4CijHjqJV3LTYtR-53" edge="1">
          <mxGeometry relative="1" as="geometry">
            <mxPoint x="-220" y="-230" as="sourcePoint" />
            <mxPoint x="-200" y="-200" as="targetPoint" />
          </mxGeometry>
        </mxCell>
        <mxCell id="KEMGA4CijHjqJV3LTYtR-53" value="CauseType" style="ellipse;whiteSpace=wrap;html=1;align=center;fontStyle=4;" parent="1" vertex="1">
          <mxGeometry x="-210" y="-515" width="70" height="30" as="geometry" />
        </mxCell>
        <mxCell id="5UGB9MkFZ9IDQmMo6DnW-9" value="etiologyID" style="ellipse;whiteSpace=wrap;html=1;align=center;fontStyle=4;" parent="1" vertex="1">
          <mxGeometry x="-170" y="-400" width="100" height="20" as="geometry" />
        </mxCell>
        <mxCell id="5UGB9MkFZ9IDQmMo6DnW-10" value="" style="endArrow=none;html=1;rounded=0;entryX=1;entryY=0.75;entryDx=0;entryDy=0;exitX=0;exitY=0.5;exitDx=0;exitDy=0;" parent="1" source="5UGB9MkFZ9IDQmMo6DnW-9" target="zrN9ZFuIJPFsRY1B07hM-1" edge="1">
          <mxGeometry relative="1" as="geometry">
            <mxPoint x="-150" y="-400" as="sourcePoint" />
            <mxPoint x="-370" y="-250" as="targetPoint" />
          </mxGeometry>
        </mxCell>
        <mxCell id="xKp3QgYPB2PjV1EvJt-S-7" value="" style="fontSize=12;html=1;endArrow=ERoneToMany;startArrow=ERmandOne;rounded=0;exitX=0.5;exitY=0.987;exitDx=0;exitDy=0;exitPerimeter=0;entryX=0.5;entryY=0;entryDx=0;entryDy=0;" parent="1" source="KEMGA4CijHjqJV3LTYtR-28" target="zrN9ZFuIJPFsRY1B07hM-1" edge="1">
          <mxGeometry width="100" height="100" relative="1" as="geometry">
            <mxPoint x="-265" y="-500" as="sourcePoint" />
            <mxPoint x="-330" y="-460" as="targetPoint" />
          </mxGeometry>
        </mxCell>
        <mxCell id="xKp3QgYPB2PjV1EvJt-S-8" value="physician" style="whiteSpace=wrap;html=1;align=center;" parent="1" vertex="1">
          <mxGeometry x="-330" y="-310" width="70" height="20" as="geometry" />
        </mxCell>
        <mxCell id="xKp3QgYPB2PjV1EvJt-S-9" value="Assigned" style="whiteSpace=wrap;html=1;align=center;" parent="1" vertex="1">
          <mxGeometry x="-190" y="-250" width="75" height="20" as="geometry" />
        </mxCell>
        <mxCell id="xKp3QgYPB2PjV1EvJt-S-17" value="treatment" style="whiteSpace=wrap;html=1;align=center;" parent="1" vertex="1">
          <mxGeometry x="-460" y="-240" width="80" height="20" as="geometry" />
        </mxCell>
        <mxCell id="xKp3QgYPB2PjV1EvJt-S-18" value="pinkeyeinfection" style="whiteSpace=wrap;html=1;align=center;" parent="1" vertex="1">
          <mxGeometry x="-610" y="-310" width="110" height="20" as="geometry" />
        </mxCell>
        <mxCell id="xKp3QgYPB2PjV1EvJt-S-19" value="Patients" style="whiteSpace=wrap;html=1;align=center;" parent="1" vertex="1">
          <mxGeometry x="-760" y="-410" width="50" height="20" as="geometry" />
        </mxCell>
        <mxCell id="xKp3QgYPB2PjV1EvJt-S-20" value="diagnosis" style="whiteSpace=wrap;html=1;align=center;" parent="1" vertex="1">
          <mxGeometry x="-760" y="-240" width="80" height="20" as="geometry" />
        </mxCell>
        <mxCell id="xKp3QgYPB2PjV1EvJt-S-21" value="" style="fontSize=12;html=1;endArrow=ERoneToMany;startArrow=ERmandOne;rounded=0;exitX=1;exitY=1;exitDx=0;exitDy=0;" parent="1" source="xKp3QgYPB2PjV1EvJt-S-27" edge="1">
          <mxGeometry width="100" height="100" relative="1" as="geometry">
            <mxPoint x="-610" y="-440" as="sourcePoint" />
            <mxPoint x="-610" y="-310" as="targetPoint" />
          </mxGeometry>
        </mxCell>
        <mxCell id="xKp3QgYPB2PjV1EvJt-S-24" value="" style="fontSize=12;html=1;endArrow=ERoneToMany;startArrow=ERmandOne;rounded=0;exitX=0.909;exitY=1;exitDx=0;exitDy=0;exitPerimeter=0;" parent="1" source="xKp3QgYPB2PjV1EvJt-S-18" edge="1">
          <mxGeometry width="100" height="100" relative="1" as="geometry">
            <mxPoint x="-490" y="-270" as="sourcePoint" />
            <mxPoint x="-460" y="-240" as="targetPoint" />
          </mxGeometry>
        </mxCell>
        <mxCell id="xKp3QgYPB2PjV1EvJt-S-26" value="" style="fontSize=12;html=1;endArrow=ERoneToMany;startArrow=ERmandOne;rounded=0;exitX=1;exitY=1;exitDx=0;exitDy=0;entryX=0;entryY=0.5;entryDx=0;entryDy=0;" parent="1" source="xKp3QgYPB2PjV1EvJt-S-8" target="xKp3QgYPB2PjV1EvJt-S-9" edge="1">
          <mxGeometry width="100" height="100" relative="1" as="geometry">
            <mxPoint x="-190" y="-310" as="sourcePoint" />
            <mxPoint x="-240" y="-220" as="targetPoint" />
          </mxGeometry>
        </mxCell>
        <mxCell id="xKp3QgYPB2PjV1EvJt-S-34" value="" style="fontSize=12;html=1;endArrow=ERoneToMany;startArrow=ERmandOne;rounded=0;exitX=1;exitY=0.75;exitDx=0;exitDy=0;" parent="1" source="xKp3QgYPB2PjV1EvJt-S-19" edge="1">
          <mxGeometry width="100" height="100" relative="1" as="geometry">
            <mxPoint x="-710" y="-385" as="sourcePoint" />
            <mxPoint x="-670" y="-350" as="targetPoint" />
          </mxGeometry>
        </mxCell>
        <mxCell id="xKp3QgYPB2PjV1EvJt-S-27" value="Have" style="shape=rhombus;perimeter=rhombusPerimeter;whiteSpace=wrap;html=1;align=center;direction=west;" parent="1" vertex="1">
          <mxGeometry x="-700" y="-360" width="60" height="30" as="geometry" />
        </mxCell>
        <mxCell id="xKp3QgYPB2PjV1EvJt-S-36" value="" style="fontSize=12;html=1;endArrow=ERoneToMany;startArrow=ERmandOne;rounded=0;exitX=0.61;exitY=1.006;exitDx=0;exitDy=0;exitPerimeter=0;entryX=1;entryY=0.5;entryDx=0;entryDy=0;" parent="1" source="xKp3QgYPB2PjV1EvJt-S-8" target="xKp3QgYPB2PjV1EvJt-S-20" edge="1">
          <mxGeometry width="100" height="100" relative="1" as="geometry">
            <mxPoint x="-450" y="-26.43505859375" as="sourcePoint" />
            <mxPoint x="-670" y="-230" as="targetPoint" />
            <Array as="points">
              <mxPoint x="-280" y="-100" />
              <mxPoint x="-590" y="-100" />
              <mxPoint x="-600" y="-230" />
            </Array>
          </mxGeometry>
        </mxCell>
        <mxCell id="xKp3QgYPB2PjV1EvJt-S-37" style="edgeStyle=orthogonalEdgeStyle;rounded=0;orthogonalLoop=1;jettySize=auto;html=1;exitX=0.5;exitY=1;exitDx=0;exitDy=0;" parent="1" edge="1">
          <mxGeometry relative="1" as="geometry">
            <mxPoint x="-635" y="-250" as="sourcePoint" />
            <mxPoint x="-635" y="-250" as="targetPoint" />
          </mxGeometry>
        </mxCell>
        <mxCell id="xKp3QgYPB2PjV1EvJt-S-44" value="" style="fontSize=12;html=1;endArrow=ERoneToMany;startArrow=ERmandOne;rounded=0;entryX=1;entryY=0;entryDx=0;entryDy=0;" parent="1" source="xKp3QgYPB2PjV1EvJt-S-43" target="xKp3QgYPB2PjV1EvJt-S-17" edge="1">
          <mxGeometry width="100" height="100" relative="1" as="geometry">
            <mxPoint x="-360" y="-260" as="sourcePoint" />
            <mxPoint x="-380" y="-230" as="targetPoint" />
            <Array as="points">
              <mxPoint x="-340" y="-270" />
            </Array>
          </mxGeometry>
        </mxCell>
        <mxCell id="xKp3QgYPB2PjV1EvJt-S-45" value="" style="fontSize=12;html=1;endArrow=ERoneToMany;startArrow=ERmandOne;rounded=0;entryX=0.372;entryY=0.856;entryDx=0;entryDy=0;entryPerimeter=0;" parent="1" target="xKp3QgYPB2PjV1EvJt-S-43" edge="1">
          <mxGeometry width="100" height="100" relative="1" as="geometry">
            <mxPoint x="-320" y="-290" as="sourcePoint" />
            <mxPoint x="-338" y="-275" as="targetPoint" />
          </mxGeometry>
        </mxCell>
        <mxCell id="xKp3QgYPB2PjV1EvJt-S-43" value="Treats" style="shape=rhombus;perimeter=rhombusPerimeter;whiteSpace=wrap;html=1;align=center;" parent="1" vertex="1">
          <mxGeometry x="-390" y="-280" width="80" height="30" as="geometry" />
        </mxCell>
        <mxCell id="xKp3QgYPB2PjV1EvJt-S-46" value="Address" style="ellipse;whiteSpace=wrap;html=1;align=center;" parent="1" vertex="1">
          <mxGeometry x="-680" y="-470" width="140" height="20" as="geometry" />
        </mxCell>
        <mxCell id="xKp3QgYPB2PjV1EvJt-S-47" value="PatientID" style="ellipse;whiteSpace=wrap;html=1;align=center;fontStyle=4;" parent="1" vertex="1">
          <mxGeometry x="-770" y="-480" width="70" height="20" as="geometry" />
        </mxCell>
        <mxCell id="xKp3QgYPB2PjV1EvJt-S-48" value="severity" style="ellipse;whiteSpace=wrap;html=1;align=center;" parent="1" vertex="1">
          <mxGeometry x="-700" y="-310" width="70" height="20" as="geometry" />
        </mxCell>
        <mxCell id="xKp3QgYPB2PjV1EvJt-S-51" value="Age" style="ellipse;whiteSpace=wrap;html=1;align=center;" parent="1" vertex="1">
          <mxGeometry x="-820" y="-450" width="70" height="20" as="geometry" />
        </mxCell>
        <mxCell id="xKp3QgYPB2PjV1EvJt-S-52" style="edgeStyle=orthogonalEdgeStyle;rounded=0;orthogonalLoop=1;jettySize=auto;html=1;exitX=0.5;exitY=1;exitDx=0;exitDy=0;" parent="1" source="xKp3QgYPB2PjV1EvJt-S-47" target="xKp3QgYPB2PjV1EvJt-S-47" edge="1">
          <mxGeometry relative="1" as="geometry" />
        </mxCell>
        <mxCell id="xKp3QgYPB2PjV1EvJt-S-53" value="infectionID" style="ellipse;whiteSpace=wrap;html=1;align=center;fontStyle=4;" parent="1" vertex="1">
          <mxGeometry x="-590" y="-360" width="90" height="20" as="geometry" />
        </mxCell>
        <mxCell id="xKp3QgYPB2PjV1EvJt-S-54" value="Gender" style="ellipse;whiteSpace=wrap;html=1;align=center;" parent="1" vertex="1">
          <mxGeometry x="-680" y="-430" width="70" height="20" as="geometry" />
        </mxCell>
        <mxCell id="xKp3QgYPB2PjV1EvJt-S-55" value="symptoms" style="ellipse;whiteSpace=wrap;html=1;align=center;" parent="1" vertex="1">
          <mxGeometry x="-480" y="-310" width="70" height="20" as="geometry" />
        </mxCell>
        <mxCell id="xKp3QgYPB2PjV1EvJt-S-56" value="duration" style="ellipse;whiteSpace=wrap;html=1;align=center;" parent="1" vertex="1">
          <mxGeometry x="-590" y="-260" width="70" height="20" as="geometry" />
        </mxCell>
        <mxCell id="xKp3QgYPB2PjV1EvJt-S-57" value="testID" style="ellipse;whiteSpace=wrap;html=1;align=center;fontStyle=4;" parent="1" vertex="1">
          <mxGeometry x="-810" y="-275" width="70" height="20" as="geometry" />
        </mxCell>
        <mxCell id="xKp3QgYPB2PjV1EvJt-S-58" value="&lt;i&gt;infectionID&lt;/i&gt;" style="ellipse;whiteSpace=wrap;html=1;align=center;" parent="1" vertex="1">
          <mxGeometry x="-710" y="-190" width="70" height="20" as="geometry" />
        </mxCell>
        <mxCell id="xKp3QgYPB2PjV1EvJt-S-59" value="result" style="ellipse;whiteSpace=wrap;html=1;align=center;" parent="1" vertex="1">
          <mxGeometry x="-757" y="-150" width="70" height="20" as="geometry" />
        </mxCell>
        <mxCell id="xKp3QgYPB2PjV1EvJt-S-60" value="testName" style="ellipse;whiteSpace=wrap;html=1;align=center;" parent="1" vertex="1">
          <mxGeometry x="-830" y="-190" width="90" height="20" as="geometry" />
        </mxCell>
        <mxCell id="xKp3QgYPB2PjV1EvJt-S-61" value="treatmentID" style="ellipse;whiteSpace=wrap;html=1;align=center;fontStyle=4;" parent="1" vertex="1">
          <mxGeometry x="-375" y="-200" width="85" height="30" as="geometry" />
        </mxCell>
        <mxCell id="xKp3QgYPB2PjV1EvJt-S-62" value="&lt;i&gt;physicianID&lt;/i&gt;" style="ellipse;whiteSpace=wrap;html=1;align=center;" parent="1" vertex="1">
          <mxGeometry x="-400" y="-170" width="70" height="30" as="geometry" />
        </mxCell>
        <mxCell id="xKp3QgYPB2PjV1EvJt-S-63" value="&lt;i&gt;infecctionID&lt;/i&gt;" style="ellipse;whiteSpace=wrap;html=1;align=center;" parent="1" vertex="1">
          <mxGeometry x="-410" y="-130" width="90" height="20" as="geometry" />
        </mxCell>
        <mxCell id="xKp3QgYPB2PjV1EvJt-S-64" value="outcome" style="ellipse;whiteSpace=wrap;html=1;align=center;" parent="1" vertex="1">
          <mxGeometry x="-483" y="-130" width="70" height="20" as="geometry" />
        </mxCell>
        <mxCell id="xKp3QgYPB2PjV1EvJt-S-65" value="medication" style="ellipse;whiteSpace=wrap;html=1;align=center;" parent="1" vertex="1">
          <mxGeometry x="-530" y="-170" width="80" height="20" as="geometry" />
        </mxCell>
        <mxCell id="xKp3QgYPB2PjV1EvJt-S-66" value="otherTherapy" style="ellipse;whiteSpace=wrap;html=1;align=center;" parent="1" vertex="1">
          <mxGeometry x="-550" y="-200" width="90" height="20" as="geometry" />
        </mxCell>
        <mxCell id="xKp3QgYPB2PjV1EvJt-S-71" value="physicianID" style="ellipse;whiteSpace=wrap;html=1;align=center;fontStyle=4;" parent="1" vertex="1">
          <mxGeometry x="-290" y="-370" width="80" height="20" as="geometry" />
        </mxCell>
        <mxCell id="xKp3QgYPB2PjV1EvJt-S-72" value="name" style="ellipse;whiteSpace=wrap;html=1;align=center;" parent="1" vertex="1">
          <mxGeometry x="-370" y="-370" width="70" height="20" as="geometry" />
        </mxCell>
        <mxCell id="xKp3QgYPB2PjV1EvJt-S-73" value="Specialization" style="ellipse;whiteSpace=wrap;html=1;align=center;" parent="1" vertex="1">
          <mxGeometry x="-220" y="-310" width="100" height="20" as="geometry" />
        </mxCell>
        <mxCell id="xKp3QgYPB2PjV1EvJt-S-74" value="contact" style="ellipse;whiteSpace=wrap;html=1;align=center;" parent="1" vertex="1">
          <mxGeometry x="-240" y="-340" width="70" height="20" as="geometry" />
        </mxCell>
        <mxCell id="xKp3QgYPB2PjV1EvJt-S-76" value="&lt;i&gt;causeType&lt;/i&gt;" style="ellipse;whiteSpace=wrap;html=1;align=center;" parent="1" vertex="1">
          <mxGeometry x="-220" y="-190" width="70" height="20" as="geometry" />
        </mxCell>
        <mxCell id="xKp3QgYPB2PjV1EvJt-S-77" value="&lt;i&gt;infectionID&lt;/i&gt;" style="ellipse;whiteSpace=wrap;html=1;align=center;" parent="1" vertex="1">
          <mxGeometry x="-140" y="-200" width="80" height="20" as="geometry" />
        </mxCell>
        <mxCell id="xKp3QgYPB2PjV1EvJt-S-81" value="" style="endArrow=none;html=1;rounded=0;exitX=1;exitY=0.5;exitDx=0;exitDy=0;entryX=0.25;entryY=0;entryDx=0;entryDy=0;" parent="1" source="xKp3QgYPB2PjV1EvJt-S-51" target="xKp3QgYPB2PjV1EvJt-S-19" edge="1">
          <mxGeometry relative="1" as="geometry">
            <mxPoint x="-600" y="-431" as="sourcePoint" />
            <mxPoint x="-440" y="-431" as="targetPoint" />
          </mxGeometry>
        </mxCell>
        <mxCell id="xKp3QgYPB2PjV1EvJt-S-82" value="" style="endArrow=none;html=1;rounded=0;entryX=0.621;entryY=1.079;entryDx=0;entryDy=0;entryPerimeter=0;exitX=0.5;exitY=0;exitDx=0;exitDy=0;" parent="1" source="xKp3QgYPB2PjV1EvJt-S-19" target="xKp3QgYPB2PjV1EvJt-S-47" edge="1">
          <mxGeometry relative="1" as="geometry">
            <mxPoint x="-590" y="-421" as="sourcePoint" />
            <mxPoint x="-430" y="-421" as="targetPoint" />
          </mxGeometry>
        </mxCell>
        <mxCell id="xKp3QgYPB2PjV1EvJt-S-83" value="" style="endArrow=none;html=1;rounded=0;entryX=0;entryY=1;entryDx=0;entryDy=0;exitX=0.75;exitY=0;exitDx=0;exitDy=0;" parent="1" source="xKp3QgYPB2PjV1EvJt-S-19" target="xKp3QgYPB2PjV1EvJt-S-46" edge="1">
          <mxGeometry relative="1" as="geometry">
            <mxPoint x="-580" y="-411" as="sourcePoint" />
            <mxPoint x="-420" y="-411" as="targetPoint" />
          </mxGeometry>
        </mxCell>
        <mxCell id="xKp3QgYPB2PjV1EvJt-S-84" value="" style="endArrow=none;html=1;rounded=0;entryX=1;entryY=0.25;entryDx=0;entryDy=0;exitX=0;exitY=0.5;exitDx=0;exitDy=0;" parent="1" source="xKp3QgYPB2PjV1EvJt-S-54" target="xKp3QgYPB2PjV1EvJt-S-19" edge="1">
          <mxGeometry relative="1" as="geometry">
            <mxPoint x="-570" y="-401" as="sourcePoint" />
            <mxPoint x="-410" y="-401" as="targetPoint" />
          </mxGeometry>
        </mxCell>
        <mxCell id="xKp3QgYPB2PjV1EvJt-S-88" value="" style="endArrow=none;html=1;rounded=0;exitX=0.5;exitY=1;exitDx=0;exitDy=0;" parent="1" source="xKp3QgYPB2PjV1EvJt-S-53" edge="1">
          <mxGeometry relative="1" as="geometry">
            <mxPoint x="-640" y="-380" as="sourcePoint" />
            <mxPoint x="-570" y="-310" as="targetPoint" />
            <Array as="points" />
          </mxGeometry>
        </mxCell>
        <mxCell id="xKp3QgYPB2PjV1EvJt-S-89" value="" style="endArrow=none;html=1;rounded=0;exitX=0;exitY=0.5;exitDx=0;exitDy=0;entryX=1;entryY=0.5;entryDx=0;entryDy=0;" parent="1" source="xKp3QgYPB2PjV1EvJt-S-18" target="xKp3QgYPB2PjV1EvJt-S-48" edge="1">
          <mxGeometry relative="1" as="geometry">
            <mxPoint x="-545" y="-330" as="sourcePoint" />
            <mxPoint x="-560" y="-300" as="targetPoint" />
            <Array as="points" />
          </mxGeometry>
        </mxCell>
        <mxCell id="xKp3QgYPB2PjV1EvJt-S-90" value="" style="endArrow=none;html=1;rounded=0;exitX=0.5;exitY=1;exitDx=0;exitDy=0;entryX=0.5;entryY=0;entryDx=0;entryDy=0;" parent="1" source="xKp3QgYPB2PjV1EvJt-S-18" target="xKp3QgYPB2PjV1EvJt-S-56" edge="1">
          <mxGeometry relative="1" as="geometry">
            <mxPoint x="-535" y="-320" as="sourcePoint" />
            <mxPoint x="-550" y="-290" as="targetPoint" />
            <Array as="points" />
          </mxGeometry>
        </mxCell>
        <mxCell id="xKp3QgYPB2PjV1EvJt-S-91" value="" style="endArrow=none;html=1;rounded=0;" parent="1" edge="1">
          <mxGeometry relative="1" as="geometry">
            <mxPoint x="-490" y="-300" as="sourcePoint" />
            <mxPoint x="-500" y="-300" as="targetPoint" />
            <Array as="points">
              <mxPoint x="-480" y="-300" />
            </Array>
          </mxGeometry>
        </mxCell>
        <mxCell id="xKp3QgYPB2PjV1EvJt-S-92" value="" style="endArrow=none;html=1;rounded=0;entryX=0.621;entryY=1.079;entryDx=0;entryDy=0;entryPerimeter=0;exitX=1;exitY=0;exitDx=0;exitDy=0;" parent="1" source="xKp3QgYPB2PjV1EvJt-S-60" edge="1">
          <mxGeometry relative="1" as="geometry">
            <mxPoint x="-750" y="-200" as="sourcePoint" />
            <mxPoint x="-742" y="-220" as="targetPoint" />
          </mxGeometry>
        </mxCell>
        <mxCell id="xKp3QgYPB2PjV1EvJt-S-93" value="" style="endArrow=none;html=1;rounded=0;entryX=0.621;entryY=1.079;entryDx=0;entryDy=0;entryPerimeter=0;exitX=0.388;exitY=0.037;exitDx=0;exitDy=0;exitPerimeter=0;" parent="1" source="xKp3QgYPB2PjV1EvJt-S-58" edge="1">
          <mxGeometry relative="1" as="geometry">
            <mxPoint x="-695" y="-170" as="sourcePoint" />
            <mxPoint x="-687" y="-218" as="targetPoint" />
          </mxGeometry>
        </mxCell>
        <mxCell id="xKp3QgYPB2PjV1EvJt-S-94" value="" style="endArrow=none;html=1;rounded=0;entryX=0.621;entryY=1.079;entryDx=0;entryDy=0;entryPerimeter=0;" parent="1" edge="1">
          <mxGeometry relative="1" as="geometry">
            <mxPoint x="-726" y="-150" as="sourcePoint" />
            <mxPoint x="-718" y="-220" as="targetPoint" />
            <Array as="points">
              <mxPoint x="-726" y="-152" />
            </Array>
          </mxGeometry>
        </mxCell>
        <mxCell id="xKp3QgYPB2PjV1EvJt-S-95" value="" style="endArrow=none;html=1;rounded=0;exitX=0.25;exitY=0;exitDx=0;exitDy=0;entryX=0.683;entryY=0.9;entryDx=0;entryDy=0;entryPerimeter=0;" parent="1" source="xKp3QgYPB2PjV1EvJt-S-20" target="xKp3QgYPB2PjV1EvJt-S-57" edge="1">
          <mxGeometry relative="1" as="geometry">
            <mxPoint x="-740" y="-177" as="sourcePoint" />
            <mxPoint x="-760" y="-250" as="targetPoint" />
          </mxGeometry>
        </mxCell>
        <mxCell id="xKp3QgYPB2PjV1EvJt-S-96" value="" style="endArrow=none;html=1;rounded=0;entryX=0.621;entryY=1.079;entryDx=0;entryDy=0;entryPerimeter=0;exitX=0;exitY=0;exitDx=0;exitDy=0;" parent="1" source="xKp3QgYPB2PjV1EvJt-S-63" edge="1">
          <mxGeometry relative="1" as="geometry">
            <mxPoint x="-410" y="-150" as="sourcePoint" />
            <mxPoint x="-402" y="-220" as="targetPoint" />
            <Array as="points">
              <mxPoint x="-410" y="-152" />
            </Array>
          </mxGeometry>
        </mxCell>
        <mxCell id="xKp3QgYPB2PjV1EvJt-S-97" value="" style="endArrow=none;html=1;rounded=0;entryX=0.621;entryY=1.079;entryDx=0;entryDy=0;entryPerimeter=0;exitX=0;exitY=0;exitDx=0;exitDy=0;" parent="1" source="xKp3QgYPB2PjV1EvJt-S-61" edge="1">
          <mxGeometry relative="1" as="geometry">
            <mxPoint x="-388" y="-150" as="sourcePoint" />
            <mxPoint x="-380" y="-220" as="targetPoint" />
            <Array as="points" />
          </mxGeometry>
        </mxCell>
        <mxCell id="xKp3QgYPB2PjV1EvJt-S-98" value="" style="endArrow=none;html=1;rounded=0;entryX=0.621;entryY=1.079;entryDx=0;entryDy=0;entryPerimeter=0;exitX=0;exitY=0;exitDx=0;exitDy=0;" parent="1" source="xKp3QgYPB2PjV1EvJt-S-62" edge="1">
          <mxGeometry relative="1" as="geometry">
            <mxPoint x="-400" y="-150" as="sourcePoint" />
            <mxPoint x="-392" y="-220" as="targetPoint" />
            <Array as="points">
              <mxPoint x="-390" y="-170" />
            </Array>
          </mxGeometry>
        </mxCell>
        <mxCell id="xKp3QgYPB2PjV1EvJt-S-100" value="" style="endArrow=none;html=1;rounded=0;entryX=0.621;entryY=1.079;entryDx=0;entryDy=0;entryPerimeter=0;" parent="1" edge="1">
          <mxGeometry relative="1" as="geometry">
            <mxPoint x="-440" y="-130" as="sourcePoint" />
            <mxPoint x="-416" y="-220" as="targetPoint" />
            <Array as="points">
              <mxPoint x="-440" y="-130" />
            </Array>
          </mxGeometry>
        </mxCell>
        <mxCell id="xKp3QgYPB2PjV1EvJt-S-101" value="" style="endArrow=none;html=1;rounded=0;entryX=0.25;entryY=1;entryDx=0;entryDy=0;exitX=1;exitY=0;exitDx=0;exitDy=0;" parent="1" source="xKp3QgYPB2PjV1EvJt-S-65" target="xKp3QgYPB2PjV1EvJt-S-17" edge="1">
          <mxGeometry relative="1" as="geometry">
            <mxPoint x="-449" y="-160" as="sourcePoint" />
            <mxPoint x="-440" y="-210" as="targetPoint" />
            <Array as="points" />
          </mxGeometry>
        </mxCell>
        <mxCell id="xKp3QgYPB2PjV1EvJt-S-102" value="" style="endArrow=none;html=1;rounded=0;entryX=0;entryY=1;entryDx=0;entryDy=0;exitX=0.5;exitY=0;exitDx=0;exitDy=0;" parent="1" source="xKp3QgYPB2PjV1EvJt-S-66" target="xKp3QgYPB2PjV1EvJt-S-17" edge="1">
          <mxGeometry relative="1" as="geometry">
            <mxPoint x="-540" y="-300" as="sourcePoint" />
            <mxPoint x="-380" y="-300" as="targetPoint" />
          </mxGeometry>
        </mxCell>
        <mxCell id="xKp3QgYPB2PjV1EvJt-S-105" value="" style="endArrow=none;html=1;rounded=0;entryX=0;entryY=0.5;entryDx=0;entryDy=0;exitX=1;exitY=0.5;exitDx=0;exitDy=0;" parent="1" source="xKp3QgYPB2PjV1EvJt-S-8" target="xKp3QgYPB2PjV1EvJt-S-73" edge="1">
          <mxGeometry relative="1" as="geometry">
            <mxPoint x="-540" y="-300" as="sourcePoint" />
            <mxPoint x="-380" y="-300" as="targetPoint" />
          </mxGeometry>
        </mxCell>
        <mxCell id="xKp3QgYPB2PjV1EvJt-S-106" value="" style="endArrow=none;html=1;rounded=0;entryX=0.25;entryY=0;entryDx=0;entryDy=0;exitX=0.407;exitY=0.927;exitDx=0;exitDy=0;exitPerimeter=0;" parent="1" source="xKp3QgYPB2PjV1EvJt-S-72" target="xKp3QgYPB2PjV1EvJt-S-8" edge="1">
          <mxGeometry relative="1" as="geometry">
            <mxPoint x="-352.5" y="-330.5" as="sourcePoint" />
            <mxPoint x="-312.5" y="-330.5" as="targetPoint" />
          </mxGeometry>
        </mxCell>
        <mxCell id="xKp3QgYPB2PjV1EvJt-S-107" value="" style="endArrow=none;html=1;rounded=0;exitX=0.5;exitY=0;exitDx=0;exitDy=0;entryX=0.5;entryY=1;entryDx=0;entryDy=0;" parent="1" source="xKp3QgYPB2PjV1EvJt-S-8" target="xKp3QgYPB2PjV1EvJt-S-71" edge="1">
          <mxGeometry relative="1" as="geometry">
            <mxPoint x="-300" y="-345.5" as="sourcePoint" />
            <mxPoint x="-260" y="-345" as="targetPoint" />
          </mxGeometry>
        </mxCell>
        <mxCell id="xKp3QgYPB2PjV1EvJt-S-108" value="" style="endArrow=none;html=1;rounded=0;entryX=0;entryY=0.5;entryDx=0;entryDy=0;exitX=1;exitY=0;exitDx=0;exitDy=0;" parent="1" source="xKp3QgYPB2PjV1EvJt-S-8" target="xKp3QgYPB2PjV1EvJt-S-74" edge="1">
          <mxGeometry relative="1" as="geometry">
            <mxPoint x="-230" y="-270" as="sourcePoint" />
            <mxPoint x="-190" y="-270" as="targetPoint" />
            <Array as="points">
              <mxPoint x="-240" y="-330" />
            </Array>
          </mxGeometry>
        </mxCell>
        <mxCell id="xKp3QgYPB2PjV1EvJt-S-109" value="" style="endArrow=none;html=1;rounded=0;exitX=0.5;exitY=1;exitDx=0;exitDy=0;" parent="1" source="xKp3QgYPB2PjV1EvJt-S-9" edge="1">
          <mxGeometry relative="1" as="geometry">
            <mxPoint x="-540" y="-300" as="sourcePoint" />
            <mxPoint x="-110" y="-200" as="targetPoint" />
          </mxGeometry>
        </mxCell>
        <mxCell id="xKp3QgYPB2PjV1EvJt-S-110" value="" style="endArrow=none;html=1;rounded=0;entryX=0.25;entryY=1;entryDx=0;entryDy=0;" parent="1" source="xKp3QgYPB2PjV1EvJt-S-76" target="xKp3QgYPB2PjV1EvJt-S-9" edge="1">
          <mxGeometry relative="1" as="geometry">
            <mxPoint x="-540" y="-300" as="sourcePoint" />
            <mxPoint x="-380" y="-300" as="targetPoint" />
          </mxGeometry>
        </mxCell>
        <mxCell id="6TnMzU4Bh7wJ2Bj77hMY-3" value="" style="fontSize=12;html=1;endArrow=ERmany;startArrow=ERmany;rounded=0;exitX=0;exitY=0.5;exitDx=0;exitDy=0;entryX=0;entryY=0.5;entryDx=0;entryDy=0;" parent="1" source="zrN9ZFuIJPFsRY1B07hM-1" target="xKp3QgYPB2PjV1EvJt-S-8" edge="1">
          <mxGeometry width="100" height="100" relative="1" as="geometry">
            <mxPoint x="-420" y="-440" as="sourcePoint" />
            <mxPoint x="-370" y="-300" as="targetPoint" />
            <Array as="points">
              <mxPoint x="-430" y="-420" />
              <mxPoint x="-410" y="-320" />
            </Array>
          </mxGeometry>
        </mxCell>
        <mxCell id="6TnMzU4Bh7wJ2Bj77hMY-4" value="Userlogin" style="whiteSpace=wrap;html=1;align=center;" parent="1" vertex="1">
          <mxGeometry x="-945" y="-460" width="100" height="25" as="geometry" />
        </mxCell>
        <mxCell id="6TnMzU4Bh7wJ2Bj77hMY-6" value="" style="endArrow=none;html=1;rounded=0;entryX=0.5;entryY=1;entryDx=0;entryDy=0;" parent="1" target="xKp3QgYPB2PjV1EvJt-S-19" edge="1">
          <mxGeometry relative="1" as="geometry">
            <mxPoint x="-735" y="-370" as="sourcePoint" />
            <mxPoint x="-747" y="-370" as="targetPoint" />
          </mxGeometry>
        </mxCell>
        <mxCell id="6TnMzU4Bh7wJ2Bj77hMY-7" value="Contact" style="ellipse;whiteSpace=wrap;html=1;align=center;" parent="1" vertex="1">
          <mxGeometry x="-780" y="-370" width="80" height="25" as="geometry" />
        </mxCell>
        <mxCell id="6TnMzU4Bh7wJ2Bj77hMY-10" value="" style="endArrow=none;html=1;rounded=0;entryX=0.5;entryY=0;entryDx=0;entryDy=0;" parent="1" source="6TnMzU4Bh7wJ2Bj77hMY-14" target="6TnMzU4Bh7wJ2Bj77hMY-4" edge="1">
          <mxGeometry relative="1" as="geometry">
            <mxPoint x="-920" y="-530" as="sourcePoint" />
            <mxPoint x="-827" y="-400.5" as="targetPoint" />
          </mxGeometry>
        </mxCell>
        <mxCell id="6TnMzU4Bh7wJ2Bj77hMY-11" value="" style="endArrow=none;html=1;rounded=0;exitX=1;exitY=0.5;exitDx=0;exitDy=0;entryX=0;entryY=0.5;entryDx=0;entryDy=0;" parent="1" source="6TnMzU4Bh7wJ2Bj77hMY-13" target="6TnMzU4Bh7wJ2Bj77hMY-4" edge="1">
          <mxGeometry relative="1" as="geometry">
            <mxPoint x="-1060" y="-346" as="sourcePoint" />
            <mxPoint x="-900" y="-346" as="targetPoint" />
          </mxGeometry>
        </mxCell>
        <mxCell id="6TnMzU4Bh7wJ2Bj77hMY-13" value="password" style="ellipse;whiteSpace=wrap;html=1;align=center;" parent="1" vertex="1">
          <mxGeometry x="-1060" y="-462.5" width="100" height="30" as="geometry" />
        </mxCell>
        <mxCell id="6TnMzU4Bh7wJ2Bj77hMY-14" value="username" style="ellipse;whiteSpace=wrap;html=1;align=center;" parent="1" vertex="1">
          <mxGeometry x="-950" y="-510" width="110" height="30" as="geometry" />
        </mxCell>
        <mxCell id="6TnMzU4Bh7wJ2Bj77hMY-19" value="" style="fontSize=12;html=1;endArrow=ERmandOne;startArrow=ERmandOne;rounded=0;entryX=0;entryY=0.5;entryDx=0;entryDy=0;exitX=0.583;exitY=1.022;exitDx=0;exitDy=0;exitPerimeter=0;" parent="1" source="6TnMzU4Bh7wJ2Bj77hMY-4" target="xKp3QgYPB2PjV1EvJt-S-19" edge="1">
          <mxGeometry width="100" height="100" relative="1" as="geometry">
            <mxPoint x="-930" y="-430" as="sourcePoint" />
            <mxPoint x="-880" y="-410" as="targetPoint" />
            <Array as="points">
              <mxPoint x="-880" y="-400" />
            </Array>
          </mxGeometry>
        </mxCell>
        <mxCell id="6pWSxUeLih_7HDg4BuR3-2" value="userID" style="ellipse;whiteSpace=wrap;html=1;align=center;" vertex="1" parent="1">
          <mxGeometry x="-990" y="-400" width="100" height="40" as="geometry" />
        </mxCell>
        <mxCell id="6pWSxUeLih_7HDg4BuR3-15" value="" style="endArrow=none;html=1;rounded=0;entryX=0.759;entryY=0.074;entryDx=0;entryDy=0;exitX=0.348;exitY=0.944;exitDx=0;exitDy=0;exitPerimeter=0;entryPerimeter=0;" edge="1" parent="1" source="6TnMzU4Bh7wJ2Bj77hMY-4" target="6pWSxUeLih_7HDg4BuR3-2">
          <mxGeometry relative="1" as="geometry">
            <mxPoint x="-917" y="-395" as="sourcePoint" />
            <mxPoint x="-920" y="-370" as="targetPoint" />
            <Array as="points" />
          </mxGeometry>
        </mxCell>
      </root>
    </mxGraphModel>
  </diagram>
</mxfile>
